<svg width="269" height="269" viewBox="0 0 269 269" fill="none" xmlns="http://www.w3.org/2000/svg">
<path fill-rule="evenodd" clip-rule="evenodd" d="M126.094 42.0312V16.8125H142.906V42.0312H126.094ZM173.455 50.2173L186.064 28.3773L200.624 36.7835L188.015 58.6236L173.455 50.2173ZM134.5 193.344C166.999 193.344 193.344 166.999 193.344 134.5C193.344 102.001 166.999 75.6562 134.5 75.6562C102.001 75.6562 75.6562 102.001 75.6562 134.5C75.6562 166.999 102.001 193.344 134.5 193.344ZM134.5 210.156C176.284 210.156 210.156 176.284 210.156 134.5C210.156 92.7162 176.284 58.8438 134.5 58.8438C92.7162 58.8438 58.8438 92.7162 58.8438 134.5C58.8438 176.284 92.7162 210.156 134.5 210.156ZM226.969 126.094H252.188V142.906H226.969V126.094ZM232.217 68.3762L210.377 80.9856L218.783 95.5456L240.623 82.9363L232.217 68.3762ZM68.3762 36.7835L80.9856 58.6236L95.5456 50.2173L82.9363 28.3773L68.3762 36.7835ZM50.2168 95.5456L28.3767 82.9363L36.783 68.3762L58.6231 80.9856L50.2168 95.5456ZM126.094 226.969V252.188H142.906V226.969H126.094ZM42.0312 126.094H16.8125V142.906H42.0312V126.094ZM28.3763 186.064L50.2164 173.454L58.6226 188.014L36.7825 200.624L28.3763 186.064ZM80.9861 210.378L68.3767 232.218L82.9368 240.624L95.5462 218.784L80.9861 210.378ZM186.064 240.624L173.454 218.784L188.014 210.378L200.624 232.218L186.064 240.624ZM210.377 188.014L232.217 200.624L240.624 186.064L218.784 173.454L210.377 188.014Z" fill="white"/>
</svg>
